<svg width="32" height="32" viewBox="0 0 32 32" fill="none" xmlns="http://www.w3.org/2000/svg">
<rect x="0.5" y="0.5" width="31" height="31" rx="7.5" fill="white" stroke="#F2F2F2"/>
<g style="mix-blend-mode:darken">
<path d="M12.0013 15.5H20.9986C21.1908 15.5 21.3012 15.5689 21.3705 15.6495C21.4487 15.7405 21.5 15.8787 21.5 16.0355C21.5 16.1922 21.4487 16.3304 21.3705 16.4214C21.3012 16.502 21.1908 16.5709 20.9986 16.5709H15.4644H12.0013C11.8092 16.5709 11.6988 16.502 11.6295 16.4214C11.5513 16.3304 11.5 16.1922 11.5 16.0355C11.5 15.8787 11.5513 15.7405 11.6295 15.6495C11.6988 15.5689 11.8092 15.5 12.0013 15.5Z" stroke="#E4E4E4"/>
</g>
</svg>
